Coordinates
version=1
nRows=19
nColumns=33
inDegrees=yes

Units are S.I. units (second, meters, Newtons, ...)
Angles are in degrees.

endheader
time	ground_thorax_rot_x	ground_thorax_rot_y	ground_thorax_rot_z	ground_thorax_tx	ground_thorax_ty	ground_thorax_tz	clav_prot_r	clav_elev_r	scapula_abduction_r	scapula_elevation_r	scapula_upward_rot_r	scapula_winging_r	shoulder_elv_r	plane_of_elev_r	axial_rot_r	elbow_flexion_r	pro_sup_r	wrist_flex_r	wrist_dev_r	clav_prot_l	clav_elev_l	scapula_abduction_l	scapula_elevation_l	scapula_upward_rot_l	scapula_winging_l	shoulder_elv_l	plane_of_elev_l	axial_rot_l	elbow_flexion_l	pro_sup_l	wrist_flex_l	wrist_dev_l	
9.4500	-37.631693	-13.950797	25.589743	-237.671017	833.059479	6.874270	6.831140	-45.000000	38.099257	-45.000000	-36.600613	-2263.572339	-1727.055383	33.265577	66.122143	1813.508081	22.763383	18.516059	3.860122	14.118208	37.347990	-36.395480	-45.000000	-45.000000	1886.646797	-3334.151365	136.740588	164.450607	370.348858	0.843764	5.218804	-19.141039	
9.4600	-37.707457	-13.867968	25.436900	-238.971022	833.288406	6.908815	6.842847	-45.000000	38.029943	-45.000000	-36.850885	-2263.623793	-1727.020313	33.298683	66.039495	1813.626232	24.323472	18.421271	3.618075	14.086056	37.348010	-36.335089	-45.000000	-45.000000	1886.673928	-3334.144952	136.775347	164.384518	370.362286	1.724587	5.045234	-19.144706	
9.4700	-37.782335	-13.786603	25.288434	-240.246637	833.483428	6.940006	6.850798	-45.000000	37.956093	-45.000000	-37.094182	-2263.670740	-1726.995666	33.326373	65.958677	1813.745317	25.899885	18.314546	3.385517	14.046355	37.358188	-36.275232	-45.000000	-45.000000	1886.689406	-3334.137926	136.820836	164.309184	370.373800	2.593606	4.886987	-19.146248	
9.4800	-37.853722	-13.711182	25.146725	-241.497556	833.644586	6.967041	6.862232	-45.000000	37.877939	-45.000000	-37.343493	-2263.716043	-1726.979312	33.355557	65.893899	1813.864069	27.482073	18.198225	3.167999	14.010608	37.362005	-36.207663	-45.000000	-45.000000	1886.699972	-3334.131819	136.863214	164.242429	370.383065	3.445550	4.735075	-19.144205	
9.4900	-37.922370	-13.640256	25.013534	-242.723701	833.771770	6.989296	6.871924	-45.000000	37.800443	-45.000000	-37.589096	-2263.758907	-1726.970122	33.375754	65.841569	1813.983853	29.055346	18.073586	2.964689	13.972163	37.369500	-36.140371	-45.000000	-45.000000	1886.707549	-3334.126654	136.907999	164.170749	370.390761	4.280025	4.594259	-19.140048	
9.5000	-37.985729	-13.581066	24.889942	-243.925527	833.864921	7.006401	6.884819	-45.000000	37.721395	-45.000000	-37.841485	-2263.801270	-1726.965176	33.396178	65.811436	1814.105632	30.617622	17.942385	2.778185	13.940448	37.367762	-36.064420	-45.000000	-45.000000	1886.720870	-3334.124508	136.943396	164.105888	370.396485	5.095797	4.455458	-19.132987	
9.5100	-38.045516	-13.525140	24.771145	-245.103559	833.924082	7.018205	6.898923	-45.000000	37.645037	-45.000000	-38.082815	-2263.839436	-1726.970913	33.408247	65.806350	1814.218284	32.168282	17.803341	2.608993	13.910467	37.364769	-35.984498	-45.000000	-45.000000	1886.728310	-3334.123355	136.975007	164.039431	370.395285	5.896761	4.323709	-19.123703	
9.5200	-38.100718	-13.478796	24.659244	-246.258605	833.949592	7.024812	6.914690	-45.000000	37.568913	-45.000000	-38.325651	-2263.877590	-1726.981969	33.418635	65.833405	1814.332052	33.706591	17.659594	2.455580	13.888950	37.350488	-35.895518	-45.000000	-45.000000	1886.741711	-3334.124739	136.992134	163.987203	370.392618	6.680068	4.192191	-19.112098	
9.5300	-38.151248	-13.437341	24.554869	-247.391177	833.942061	7.026528	6.929138	-45.000000	37.496939	-45.000000	-38.564942	-2263.914289	-1726.999582	33.418951	65.878262	1814.446927	35.230980	17.510295	2.314373	13.867041	37.338318	-35.805984	-45.000000	-45.000000	1886.751104	-3334.130486	137.008975	163.931617	370.387454	7.449801	4.069364	-19.099830	
9.5400	-38.196614	-13.404334	24.457489	-248.501794	833.902479	7.023843	6.943089	-45.000000	37.425426	-45.000000	-38.809033	-2263.951197	-1727.018941	33.416685	65.940699	1814.567347	36.737418	17.357874	2.185080	13.847481	37.322988	-35.713467	-45.000000	-45.000000	1886.763030	-3334.139642	137.021586	163.880296	370.382929	8.201736	3.949934	-19.086126	
9.5500	-38.236148	-13.374043	24.363616	-249.590834	833.832199	7.017389	6.955802	-45.000000	37.357501	-45.000000	-39.051636	-2263.985433	-1727.041532	33.409032	66.014300	1814.686236	38.222805	17.200221	2.066894	13.825091	37.313365	-35.622413	-45.000000	-45.000000	1886.765472	-3334.152721	137.039911	163.820724	370.376989	8.937388	3.840453	-19.072032	
9.5600	-38.269569	-13.355594	24.282065	-250.658691	833.732986	7.007912	6.970744	-45.000000	37.291297	-45.000000	-39.305957	-2264.024420	-1727.061861	33.400516	66.101139	1814.814810	39.690541	17.042106	1.960982	13.809272	37.293986	-35.531047	-45.000000	-45.000000	1886.778624	-3334.168629	137.051314	163.773159	370.374518	9.654109	3.728369	-19.055305	
9.5700	-38.296003	-13.348231	24.213957	-251.705454	833.606956	6.996205	6.988006	-45.000000	37.229051	-45.000000	-39.566547	-2264.065924	-1727.082196	33.385690	66.187897	1814.948507	41.151190	16.879291	1.864551	13.793086	37.277285	-35.444392	-45.000000	-45.000000	1886.793078	-3334.190195	137.070295	163.717995	370.375981	10.363110	3.620795	-19.038249	
9.5800	-38.319242	-13.345441	24.149625	-252.730934	833.456552	6.983040	7.006287	-45.000000	37.168123	-45.000000	-39.818873	-2264.108600	-1727.104579	33.366087	66.285910	1815.084452	42.603268	16.716037	1.780939	13.777328	37.258619	-35.358462	-45.000000	-45.000000	1886.810929	-3334.211352	137.085274	163.661481	370.380023	11.062661	3.510869	-19.018243	
9.5900	-38.337479	-13.345550	24.086072	-253.734530	833.284443	6.969098	7.023155	-45.000000	37.109529	-45.000000	-40.063771	-2264.149756	-1727.129747	33.343065	66.396160	1815.216335	44.040213	16.546769	1.705563	13.758274	37.246822	-35.273929	-45.000000	-45.000000	1886.818816	-3334.234901	137.108708	163.601288	370.388155	11.753375	3.408600	-18.998106	
9.6000	-38.351568	-13.349451	24.027641	-254.715217	833.093404	6.954904	7.041783	-45.000000	37.052721	-45.000000	-40.311683	-2264.192629	-1727.157319	33.316771	66.518478	1815.348314	45.461395	16.378410	1.642960	13.742564	37.228749	-35.189308	-45.000000	-45.000000	1886.830423	-3334.259025	137.124143	163.547561	370.398295	12.433327	3.303888	-18.974635	
9.6100	-38.360134	-13.361316	23.977375	-255.671440	832.886242	6.940809	7.061052	-45.000000	36.993889	-45.000000	-40.573464	-2264.233652	-1727.188058	33.289039	66.635305	1815.476964	46.866759	16.205198	1.586899	13.722655	37.218694	-35.107337	-45.000000	-45.000000	1886.835045	-3334.284646	137.150672	163.483747	370.412511	13.108178	3.207221	-18.951198	
9.6200	-38.365908	-13.374709	23.926175	-256.601384	832.665700	6.926995	7.082938	-45.000000	36.935666	-45.000000	-40.837170	-2264.271535	-1727.221908	33.261003	66.754795	1815.599585	48.254813	16.036741	1.546205	13.704409	37.203543	-35.024171	-45.000000	-45.000000	1886.841518	-3334.306579	137.167313	163.417352	370.423420	13.773343	3.107973	-18.923498	
9.6300	-38.363967	-13.396929	23.880120	-257.503065	832.434439	6.913554	7.104556	-45.000000	36.873069	-45.000000	-41.111578	-2264.306866	-1727.253346	33.239260	66.871352	1815.716788	49.619787	15.866875	1.511874	13.684384	37.193600	-34.940386	-45.000000	-45.000000	1886.842730	-3334.330008	137.189678	163.350246	370.436181	14.426682	3.015480	-18.894932	
